<svg width="200" height="200" viewBox="0 0 200 200" xmlns="http://www.w3.org/2000/svg">
  <defs>
    <linearGradient id="arc-grad" x1="0%" y1="0%" x2="100%" y2="100%">
      <stop offset="0%" stop-color="#4ecca3"/>
      <stop offset="100%" stop-color="#00ffd0" stop-opacity="0.3"/>
    </linearGradient>
  </defs>
  <rect width="200" height="200" fill="#050810"/>
  <circle cx="100" cy="100" r="88" fill="none" stroke="#4ecca3" stroke-width="1.5" stroke-opacity="0.12"/>
  <g>
    <animateTransform attributeName="transform" type="rotate" from="0 100 100" to="360 100 100" dur="8s" repeatCount="indefinite"/>
    <path d="M100,12 A88,88 0 0,1 188,100" fill="none" stroke="url(#arc-grad)" stroke-width="5" stroke-linecap="round"/>
    <circle cx="188" cy="100" r="7" fill="#4ecca3"/>
  </g>
  <circle cx="100" cy="100" r="66" fill="none" stroke="#1c2a3a" stroke-width="1.5"/>
  <circle cx="100" cy="100" r="52" fill="#0d1520"/>
  <circle cx="100" cy="100" r="52" fill="none" stroke="#243040" stroke-width="1"/>
  <g fill="#ffffff">
    <rect x="58" y="65" width="7" height="70" rx="3"/>
    <rect x="58" y="65" width="34" height="7" rx="3"/>
    <rect x="58" y="97" width="26" height="6" rx="2.5"/>
  </g>
  <g fill="#4ecca3">
    <rect x="104" y="65" width="7" height="70" rx="3"/>
    <rect x="129" y="65" width="7" height="70" rx="3"/>
    <line x1="111" y1="65" x2="129" y2="100" stroke="#4ecca3" stroke-width="7" stroke-linecap="round"/>
  </g>
  <g>
    <animateTransform attributeName="transform" type="rotate" from="0 100 100" to="-360 100 100" dur="5s" repeatCount="indefinite"/>
    <circle cx="100" cy="34" r="5" fill="#ff6b6b" opacity="0.9"/>
  </g>
</svg>
